<?xml version="1.0" standalone="no"?><!DOCTYPE svg PUBLIC "-//W3C//DTD SVG 1.1//EN" "http://www.w3.org/Graphics/SVG/1.1/DTD/svg11.dtd"><svg t="1669796412468" class="icon" viewBox="0 0 1024 1024" version="1.1" xmlns="http://www.w3.org/2000/svg" p-id="18077" xmlns:xlink="http://www.w3.org/1999/xlink" width="200" height="200"><path d="M949.6 757.2L732 553.2c-12.1-11.3-31-11-42.7 0.7L573.6 669.5c-12.4 12.4-32.6 11.9-44.4-1L287.1 403.2c-11.8-12.9-32-13.4-44.4-1L73.2 571.7c-5.8 5.8-9 13.6-9 21.7v186.8c0 38.2 30.9 69.1 69.1 69.1h756.9c38.2 0 69.1-30.9 69.1-69.1v-0.6c0-8.5-3.5-16.6-9.7-22.4z" fill="#EEEEEE" p-id="18078"></path><path d="M890.2 183.5H133.3c-38.2 0-69.1 30.9-69.1 69.1v199.5c0 27.4 33.1 41.1 52.4 21.7l126-126c12.4-12.4 32.6-11.9 44.4 1L529.2 614c11.8 12.9 32 13.4 44.4 1l115.6-115.6c11.7-11.7 30.6-12 42.7-0.7l175.6 164.6c19.6 18.4 51.7 4.5 51.7-22.4V252.6c0.1-38.2-30.8-69.1-69-69.1z m-163.1 228c-47.7 0-86.4-38.7-86.4-86.4s38.7-86.4 86.4-86.4 86.4 38.7 86.4 86.4-38.7 86.4-86.4 86.4z" fill="#EEEEEE" p-id="18079"></path><path d="M727.4 326.2m-63.6 0a63.6 63.6 0 1 0 127.2 0 63.6 63.6 0 1 0-127.2 0Z" fill="#FFF7D4" p-id="18080"></path></svg>